<?xml version="1.0" encoding="UTF-8"?>
<svg id="Layer_2" data-name="Layer 2" xmlns="http://www.w3.org/2000/svg" viewBox="0 0 108.53 180.95">
  <defs>
    <style>
      .cls-1 {
        fill: #ac91c4;
      }

      .cls-2 {
        fill: #1d1d1b;
      }
    </style>
  </defs>
  <g id="Layer_1-2" data-name="Layer 1">
    <g>
      <path class="cls-2" d="m105.88,132.69h-19.16c-1.37,0-2.47,1.11-2.47,2.47v19.4c0,1.37-1.11,2.48-2.48,2.48h-12.92c-1.37,0-2.48-1.11-2.48-2.48v-19.4c0-1.37-1.11-2.48-2.48-2.48h-19.19c-1.37,0-2.48,1.11-2.48,2.48v19.18c0,1.37-1.11,2.48-2.48,2.48h-12.92c-1.37,0-2.48-1.11-2.48-2.48v-19.18c0-1.37-1.11-2.48-2.48-2.48H2.48C1.11,132.69,0,133.8,0,135.17v43.3c0,1.37,1.11,2.48,2.48,2.48h103.41c1.37,0,2.48-1.11,2.48-2.48v-43.3c0-1.37-1.11-2.48-2.48-2.48Z"/>
      <path class="cls-1" d="m106.03,102.54h-19.18s0,0,0,0h0c-1.36,0-2.47,1.11-2.47,2.47h0v19.18h0c0,1.37,1.11,2.48,2.47,2.48h19.19c1.36,0,2.47-1.11,2.47-2.47h0v-19.18h0c0-1.37-1.11-2.47-2.47-2.47h0s0,0,0,0Z"/>
      <path class="cls-2" d="m2.48,126.66h73.4c1.37,0,2.47-1.11,2.48-2.47v-19.18c0-1.37-1.11-2.48-2.47-2.48H26.54c-1.37,0-2.48-1.11-2.48-2.48V2.48c0-1.37-1.11-2.48-2.48-2.48H2.48C1.11,0,0,1.11,0,2.48v121.71c0,1.37,1.11,2.48,2.48,2.48Z"/>
      <path class="cls-2" d="m106.18,48.36h-37.28c-1.3,0-2.36-1.06-2.36-2.36v-19.29c0-1.3,1.06-2.36,2.36-2.36h36.61c1.3,0,2.35-1.05,2.35-2.35V2.35C107.86,1.05,106.81,0,105.51,0h-60.76c-1.41,0-2.56,1.15-2.56,2.56v91.6c0,1.3,1.05,2.35,2.35,2.35h19.65c1.3,0,2.35-1.05,2.35-2.35v-19.54c0-1.3,1.05-2.35,2.35-2.35h37.3c1.3,0,2.35-1.05,2.35-2.35v-19.21c0-1.3-1.05-2.35-2.35-2.35Z"/>
    </g>
  </g>
</svg>