<svg xmlns="http://www.w3.org/2000/svg" width="24.001" height="16" viewBox="0 0 24.001 16">
  <g id="icon-menu" transform="translate(27 23.5) rotate(180)">
    <path id="Trazado_1" data-name="Trazado 1" d="M3,8.7A1.2,1.2,0,0,1,4.2,7.5h9.636a1.2,1.2,0,1,1,0,2.394H4.2A1.2,1.2,0,0,1,3,8.7Z" transform="translate(0)" fill="#fff"/>
    <path id="Trazado_2" data-name="Trazado 2" d="M3,17.7a1.2,1.2,0,0,1,1.194-1.2H25.806a1.2,1.2,0,0,1,0,2.394H4.194A1.2,1.2,0,0,1,3,17.7Z" transform="translate(0 -2.205)" fill="#fff"/>
    <path id="Trazado_3" data-name="Trazado 3" d="M4.2,25.515a1.2,1.2,0,1,0,0,2.394H18.644a1.2,1.2,0,0,0,0-2.394Z" transform="translate(0 -4.409)" fill="#fff"/>
  </g>
</svg>
